<?xml version="1.0" encoding="UTF-8"?><svg xmlns="http://www.w3.org/2000/svg" xmlns:xlink="http://www.w3.org/1999/xlink" contentScriptType="text/ecmascript" width="300pt" zoomAndPan="magnify" contentStyleType="text/css" viewBox="0 0 300 149.999998" height="149.999998pt" preserveAspectRatio="xMidYMid meet" version="1.2"><defs><g/><clipPath xml:id="clip1" id="clip1"><path d="M 203.683594 85.382812 L 253.339844 85.382812 L 253.339844 145.382812 L 203.683594 145.382812 Z M 203.683594 85.382812 "/></clipPath></defs><g xml:id="surface1" id="surface1"><g style="fill:rgb(36.859131%,9.01947%,92.158508%);fill-opacity:1;"><g transform="translate(-0.664498, 100.406937)"><path style="stroke:none;" d="M 35.171875 -67.828125 C 43.691406 -67.828125 50.695312 -66.097656 56.1875 -62.640625 C 61.6875 -59.179688 64.5 -54.0625 64.625 -47.28125 L 64.625 -46.125 L 44.5625 -46.125 L 44.5625 -46.5 C 44.5625 -48.445312 43.851562 -50.066406 42.4375 -51.359375 C 41.019531 -52.648438 38.859375 -53.296875 35.953125 -53.296875 C 33.109375 -53.296875 30.925781 -52.875 29.40625 -52.03125 C 27.882812 -51.1875 27.125 -50.15625 27.125 -48.9375 C 27.125 -47.1875 28.15625 -45.890625 30.21875 -45.046875 C 32.289062 -44.210938 35.617188 -43.34375 40.203125 -42.4375 C 45.566406 -41.34375 49.976562 -40.195312 53.4375 -39 C 56.894531 -37.800781 59.914062 -35.84375 62.5 -33.125 C 65.082031 -30.414062 66.40625 -26.738281 66.46875 -22.09375 C 66.46875 -14.207031 63.800781 -8.359375 58.46875 -4.546875 C 53.144531 -0.742188 46.023438 1.15625 37.109375 1.15625 C 26.710938 1.15625 18.625 -0.582031 12.84375 -4.0625 C 7.0625 -7.550781 4.171875 -13.722656 4.171875 -22.578125 L 24.421875 -22.578125 C 24.421875 -19.210938 25.289062 -16.960938 27.03125 -15.828125 C 28.78125 -14.703125 31.492188 -14.140625 35.171875 -14.140625 C 37.878906 -14.140625 40.117188 -14.429688 41.890625 -15.015625 C 43.671875 -15.597656 44.5625 -16.796875 44.5625 -18.609375 C 44.5625 -20.222656 43.578125 -21.429688 41.609375 -22.234375 C 39.640625 -23.046875 36.425781 -23.898438 31.96875 -24.796875 C 26.539062 -25.960938 22.050781 -27.175781 18.5 -28.4375 C 14.945312 -29.695312 11.847656 -31.78125 9.203125 -34.6875 C 6.554688 -37.59375 5.234375 -41.53125 5.234375 -46.5 C 5.234375 -53.800781 8.054688 -59.179688 13.703125 -62.640625 C 19.359375 -66.097656 26.515625 -67.828125 35.171875 -67.828125 Z M 35.171875 -67.828125 "/></g></g><g style="fill:rgb(36.859131%,9.01947%,92.158508%);fill-opacity:1;"><g transform="translate(69.289847, 100.406937)"><path style="stroke:none;" d="M 52.125 0 L 52.125 -25.28125 L 28.578125 -25.28125 L 28.578125 0 L 7.171875 0 L 7.171875 -66.65625 L 28.578125 -66.65625 L 28.578125 -42.34375 L 52.125 -42.34375 L 52.125 -66.65625 L 73.546875 -66.65625 L 73.546875 0 Z M 52.125 0 "/></g></g><g style="fill:rgb(36.859131%,9.01947%,92.158508%);fill-opacity:1;"><g transform="translate(149.998938, 100.406937)"><path style="stroke:none;" d="M 40.3125 -67.828125 C 51.800781 -67.828125 60.675781 -64.882812 66.9375 -59 C 73.207031 -53.125 76.34375 -44.566406 76.34375 -33.328125 C 76.34375 -22.085938 73.207031 -13.53125 66.9375 -7.65625 C 60.675781 -1.78125 51.800781 1.15625 40.3125 1.15625 C 28.8125 1.15625 19.941406 -1.765625 13.703125 -7.609375 C 7.472656 -13.453125 4.359375 -22.023438 4.359375 -33.328125 C 4.359375 -44.628906 7.472656 -53.203125 13.703125 -59.046875 C 19.941406 -64.898438 28.8125 -67.828125 40.3125 -67.828125 Z M 40.3125 -51.84375 C 35.71875 -51.84375 32.222656 -50.453125 29.828125 -47.671875 C 27.441406 -44.890625 26.25 -41.144531 26.25 -36.4375 L 26.25 -30.234375 C 26.25 -25.515625 27.441406 -21.765625 29.828125 -18.984375 C 32.222656 -16.210938 35.71875 -14.828125 40.3125 -14.828125 C 44.894531 -14.828125 48.394531 -16.210938 50.8125 -18.984375 C 53.238281 -21.765625 54.453125 -25.515625 54.453125 -30.234375 L 54.453125 -36.4375 C 54.453125 -41.144531 53.238281 -44.890625 50.8125 -47.671875 C 48.394531 -50.453125 44.894531 -51.84375 40.3125 -51.84375 Z M 40.3125 -51.84375 "/></g></g><g style="fill:rgb(36.859131%,9.01947%,92.158508%);fill-opacity:1;"><g transform="translate(230.708029, 100.406937)"><path style="stroke:none;" d="M 44.5625 -66.65625 C 48.695312 -66.65625 52.378906 -65.703125 55.609375 -63.796875 C 58.835938 -61.890625 61.359375 -59.273438 63.171875 -55.953125 C 64.984375 -52.628906 65.890625 -48.898438 65.890625 -44.765625 L 65.890625 -43.5 C 65.890625 -39.363281 64.984375 -35.613281 63.171875 -32.25 C 61.359375 -28.894531 58.835938 -26.265625 55.609375 -24.359375 C 52.378906 -22.460938 48.695312 -21.515625 44.5625 -21.515625 L 28.578125 -21.515625 L 28.578125 0 L 7.171875 0 L 7.171875 -66.65625 Z M 28.578125 -37.109375 L 37.40625 -37.109375 C 39.664062 -37.109375 41.359375 -37.6875 42.484375 -38.84375 C 43.617188 -40.007812 44.1875 -41.59375 44.1875 -43.59375 L 44.1875 -44.375 C 44.1875 -46.4375 43.617188 -48.035156 42.484375 -49.171875 C 41.359375 -50.304688 39.664062 -50.875 37.40625 -50.875 L 28.578125 -50.875 Z M 28.578125 -37.109375 "/></g></g><path style=" stroke:none;fill-rule:nonzero;fill:rgb(19.999695%,26.669312%,33.329773%);fill-opacity:1;" d="M 216.300781 139.914062 L 208.035156 140.6875 C 207.128906 140.765625 206.355469 140.117188 206.269531 139.230469 L 203.191406 106.578125 C 203.148438 106.117188 203.308594 105.65625 203.628906 105.316406 L 209.292969 99.351562 C 209.707031 98.917969 209.6875 98.230469 209.25 97.820312 C 208.816406 97.40625 208.128906 97.425781 207.714844 97.863281 L 202.050781 103.828125 C 201.296875 104.621094 200.921875 105.695312 201.027344 106.785156 L 204.105469 139.433594 C 204.292969 141.390625 205.949219 142.863281 207.882812 142.863281 C 208 142.863281 208.121094 142.859375 208.242188 142.847656 L 216.503906 142.070312 C 217.101562 142.015625 217.542969 141.488281 217.484375 140.890625 C 217.429688 140.292969 216.898438 139.847656 216.300781 139.914062 "/><path style=" stroke:none;fill-rule:nonzero;fill:rgb(19.999695%,26.669312%,33.329773%);fill-opacity:1;" d="M 238.132812 122.527344 C 237.984375 122.464844 237.828125 122.433594 237.671875 122.433594 C 237.515625 122.433594 237.359375 122.464844 237.210938 122.527344 C 236.914062 122.648438 236.683594 122.878906 236.558594 123.175781 C 236.433594 123.472656 236.433594 123.796875 236.558594 124.09375 C 236.679688 124.390625 236.910156 124.621094 237.210938 124.746094 C 237.507812 124.867188 237.835938 124.871094 238.132812 124.746094 C 238.429688 124.625 238.660156 124.394531 238.785156 124.097656 C 238.90625 123.800781 238.90625 123.472656 238.785156 123.175781 C 238.660156 122.878906 238.429688 122.648438 238.132812 122.527344 "/><path style=" stroke:none;fill-rule:nonzero;fill:rgb(19.999695%,26.669312%,33.329773%);fill-opacity:1;" d="M 223.285156 116.386719 C 223.136719 116.324219 222.980469 116.292969 222.824219 116.292969 C 222.667969 116.292969 222.511719 116.324219 222.363281 116.386719 C 221.75 116.640625 221.457031 117.34375 221.710938 117.957031 C 221.832031 118.25 222.0625 118.484375 222.359375 118.605469 C 222.660156 118.730469 222.984375 118.730469 223.285156 118.605469 C 223.898438 118.351562 224.191406 117.648438 223.9375 117.039062 C 223.8125 116.742188 223.582031 116.511719 223.285156 116.386719 "/><g clip-rule="nonzero" clip-path="url(#clip1)"><path style=" stroke:none;fill-rule:nonzero;fill:rgb(19.999695%,26.669312%,33.329773%);fill-opacity:1;" d="M 242.132812 125.484375 C 241.636719 126.671875 240.707031 127.59375 239.515625 128.085938 C 238.921875 128.332031 238.296875 128.453125 237.671875 128.453125 C 237.042969 128.453125 236.417969 128.332031 235.820312 128.082031 C 234.628906 127.589844 233.699219 126.664062 233.207031 125.476562 C 232.714844 124.285156 232.714844 122.976562 233.210938 121.789062 C 233.707031 120.601562 234.632812 119.675781 235.828125 119.183594 C 237.019531 118.695312 238.332031 118.695312 239.523438 119.1875 C 240.714844 119.679688 241.640625 120.609375 242.136719 121.796875 C 242.628906 122.984375 242.628906 124.292969 242.132812 125.484375 Z M 226.074219 132.398438 C 225.84375 132.398438 225.605469 132.355469 225.378906 132.261719 C 224.457031 131.878906 224.015625 130.820312 224.402344 129.898438 L 232.75 109.847656 C 233.132812 108.925781 234.191406 108.488281 235.117188 108.871094 C 236.042969 109.253906 236.480469 110.308594 236.097656 111.234375 L 227.746094 131.285156 C 227.457031 131.980469 226.785156 132.398438 226.074219 132.398438 Z M 222.824219 122.316406 C 222.195312 122.316406 221.570312 122.191406 220.972656 121.945312 C 219.78125 121.449219 218.851562 120.523438 218.359375 119.335938 C 217.34375 116.882812 218.515625 114.0625 220.976562 113.046875 C 222.171875 112.554688 223.484375 112.554688 224.675781 113.046875 C 225.867188 113.542969 226.792969 114.46875 227.285156 115.65625 C 228.304688 118.109375 227.128906 120.933594 224.667969 121.945312 C 224.074219 122.191406 223.449219 122.316406 222.824219 122.316406 Z M 219.269531 97.316406 C 219.597656 97.777344 219.90625 98.234375 220.171875 98.675781 C 220.378906 99.011719 220.734375 99.199219 221.105469 99.199219 C 221.296875 99.199219 221.492188 99.148438 221.667969 99.042969 C 222.179688 98.734375 222.34375 98.066406 222.035156 97.554688 C 221.808594 97.179688 221.550781 96.792969 221.277344 96.398438 C 221.839844 96.339844 222.40625 96.40625 222.941406 96.625 C 223.785156 96.976562 224.441406 97.632812 224.789062 98.472656 C 225.140625 99.316406 225.140625 100.242188 224.789062 101.082031 C 224.4375 101.925781 223.78125 102.578125 222.9375 102.929688 C 222.511719 103.101562 222.070312 103.1875 221.632812 103.1875 C 220.289062 103.1875 219.011719 102.390625 218.46875 101.078125 C 217.914062 99.742188 218.285156 98.261719 219.269531 97.316406 Z M 212.636719 95.015625 C 209.023438 93.015625 206.421875 90.6875 206.046875 89.0625 C 205.953125 88.648438 206.015625 88.320312 206.25 88.007812 C 206.421875 87.78125 206.707031 87.523438 207.390625 87.554688 C 209.117188 87.640625 211.75 89.386719 214.28125 91.710938 Z M 253.03125 129.453125 L 239.375 96.511719 C 238.929688 95.4375 238.042969 94.609375 236.945312 94.238281 L 219.804688 88.445312 C 218.175781 87.890625 216.402344 88.457031 215.363281 89.753906 C 212.65625 87.339844 209.75 85.503906 207.496094 85.390625 C 206.226562 85.324219 205.203125 85.785156 204.511719 86.707031 C 203.890625 87.53125 203.6875 88.515625 203.929688 89.550781 C 204.660156 92.710938 209.261719 95.625 211.671875 96.960938 L 206.863281 106.636719 C 206.347656 107.675781 206.304688 108.882812 206.75 109.953125 L 220.40625 142.898438 C 220.816406 143.890625 221.589844 144.664062 222.585938 145.074219 C 223.082031 145.28125 223.605469 145.382812 224.128906 145.382812 C 224.652344 145.382812 225.171875 145.28125 225.667969 145.078125 L 250.84375 134.703125 C 251.839844 134.292969 252.613281 133.519531 253.027344 132.527344 C 253.441406 131.539062 253.441406 130.445312 253.03125 129.453125 "/></g></g></svg>