<svg xmlns="http://www.w3.org/2000/svg" contentScriptType="text/ecmascript" width="120" viewBox="0 0 90 45" height="60" version="1.2"><g style="fill:#00c2cb;fill-opacity:1"><path style="stroke:none" d="M3.84-3.406a7.52 7.52 0 0 0 3.476.875c1.516 0 2.368-.184 2.368-.504 0-.969-9.176.988-9.176-3.36 0-1.91 2.437-3.015 6.762-3.015 2.507 0 4.808.668 6.394 1.82L10.79-5.797c-1.012-.574-2.277-.898-3.473-.898-1.52 0-2.37.183-2.37.53 0 .83 9.179-.987 9.179 3.36 0 1.93-2.418 3.012-6.742 2.965C5.129.184 2.805-.46.965-1.633zm0 0" transform="translate(.126 26.476)"/></g><g style="fill:#00c2cb;fill-opacity:1"><path style="stroke:none" d="M9.684-9.41c-1.68.047-2.922.644-3.633 1.773V-11.5H.94V0h5.11v-4.14c.32-1.22.941-1.864 1.816-1.864 1.035 0 1.633.941 1.633 2.598V0h5.086v-4.969c0-2.828-1.774-4.441-4.902-4.441zm0 0" transform="translate(14.433 26.476)"/></g><g style="fill:#00c2cb;fill-opacity:1"><path style="stroke:none" d="M7.5.207c4.348 0 6.809-1.75 6.809-4.809 0-3.058-2.461-4.808-6.809-4.808C3.129-9.41.668-7.66.668-4.602.668-1.543 3.128.207 7.5.207zm0-3.219c-1.129 0-1.773-.578-1.773-1.59 0-1.011.644-1.585 1.773-1.585 1.125 0 1.746.574 1.746 1.585 0 1.012-.621 1.59-1.746 1.59zm0 0" transform="translate(29.453 26.476)"/></g><g style="fill:#00c2cb;fill-opacity:1"><path style="stroke:none" d="M9.223-9.41c-1.356 0-2.438.46-3.172 1.289v-1.082H.94V2.3h5.11v-3.383C6.785-.254 7.867.207 9.223.207c3.43 0 5.363-1.75 5.363-4.809 0-3.058-1.934-4.808-5.363-4.808zm-1.45 6.398c-1.125 0-1.722-.578-1.722-1.59 0-1.011.597-1.585 1.722-1.585 1.13 0 1.75.574 1.75 1.585 0 1.012-.62 1.59-1.75 1.59zm0 0" transform="translate(44.106 26.476)"/></g><g style="fill:#87f;fill-opacity:1"><path style="stroke:none" d="M7.5.207c4.348 0 6.809-1.75 6.809-4.809 0-3.058-2.461-4.808-6.809-4.808C3.129-9.41.668-7.66.668-4.602.668-1.543 3.128.207 7.5.207zm0-3.219c-1.129 0-1.773-.578-1.773-1.59 0-1.011.644-1.585 1.773-1.585 1.125 0 1.746.574 1.746 1.585 0 1.012-.621 1.59-1.746 1.59zm0 0" transform="translate(59.024 26.476)"/></g><g style="fill:#87f;fill-opacity:1"><path style="stroke:none" d="M9.684-9.41c-1.68.047-2.922.644-3.633 1.773v-1.566H.94V0h5.11v-4.164c.32-1.195.941-1.84 1.816-1.84 1.035 0 1.633.941 1.633 2.598V0h5.086v-4.969c0-2.828-1.774-4.441-4.902-4.441zm0 0" transform="translate(73.677 26.476)"/></g></svg>